ModelForces
version=1
nRows=4
nColumns=155
inDegrees=no

This file contains the forces exerted on a model during a simulation.

A force is a generalized force, meaning that it can be either a force (N) or a torque (Nm).

Units are S.I. units (second, meters, Newtons, ...)
Angles are in degrees.

endheader
time	glut_med1_r	glut_med2_r	glut_med3_r	glut_min1_r	glut_min2_r	glut_min3_r	semimem_r	semiten_r	bifemlh_r	bifemsh_r	sar_r	add_long_r	add_brev_r	add_mag1_r	add_mag2_r	add_mag3_r	tfl_r	pect_r	grac_r	glut_max1_r	glut_max2_r	glut_max3_r	iliacus_r	psoas_r	quad_fem_r	gem_r	peri_r	rect_fem_r	vas_med_r	vas_int_r	vas_lat_r	med_gas_r	lat_gas_r	soleus_r	tib_post_r	flex_dig_r	flex_hal_r	tib_ant_r	per_brev_r	per_long_r	per_tert_r	ext_dig_r	ext_hal_r	glut_med1_l	glut_med2_l	glut_med3_l	glut_min1_l	glut_min2_l	glut_min3_l	semimem_l	semiten_l	bifemlh_l	bifemsh_l	sar_l	add_long_l	add_brev_l	add_mag1_l	add_mag2_l	add_mag3_l	tfl_l	pect_l	grac_l	glut_max1_l	glut_max2_l	glut_max3_l	iliacus_l	psoas_l	quad_fem_l	gem_l	peri_l	rect_fem_l	vas_med_l	vas_int_l	vas_lat_l	med_gas_l	lat_gas_l	soleus_l	tib_post_l	flex_dig_l	flex_hal_l	tib_ant_l	per_brev_l	per_long_l	per_tert_l	ext_dig_l	ext_hal_l	ercspn_r	ercspn_l	intobl_r	intobl_l	extobl_r	extobl_l	femur_lat_meniscii_r.femur_lat_r.force.X	femur_lat_meniscii_r.femur_lat_r.force.Y	femur_lat_meniscii_r.femur_lat_r.force.Z	femur_lat_meniscii_r.femur_lat_r.torque.X	femur_lat_meniscii_r.femur_lat_r.torque.Y	femur_lat_meniscii_r.femur_lat_r.torque.Z	femur_lat_meniscii_r.meniscus_lat_r.force.X	femur_lat_meniscii_r.meniscus_lat_r.force.Y	femur_lat_meniscii_r.meniscus_lat_r.force.Z	femur_lat_meniscii_r.meniscus_lat_r.torque.X	femur_lat_meniscii_r.meniscus_lat_r.torque.Y	femur_lat_meniscii_r.meniscus_lat_r.torque.Z	femur_med_meniscii_r.femur_med_r.force.X	femur_med_meniscii_r.femur_med_r.force.Y	femur_med_meniscii_r.femur_med_r.force.Z	femur_med_meniscii_r.femur_med_r.torque.X	femur_med_meniscii_r.femur_med_r.torque.Y	femur_med_meniscii_r.femur_med_r.torque.Z	femur_med_meniscii_r.meniscus_med_r.force.X	femur_med_meniscii_r.meniscus_med_r.force.Y	femur_med_meniscii_r.meniscus_med_r.force.Z	femur_med_meniscii_r.meniscus_med_r.torque.X	femur_med_meniscii_r.meniscus_med_r.torque.Y	femur_med_meniscii_r.meniscus_med_r.torque.Z	femur_med_tibia_r.tibia_upper_r.force.X	femur_med_tibia_r.tibia_upper_r.force.Y	femur_med_tibia_r.tibia_upper_r.force.Z	femur_med_tibia_r.tibia_upper_r.torque.X	femur_med_tibia_r.tibia_upper_r.torque.Y	femur_med_tibia_r.tibia_upper_r.torque.Z	femur_med_tibia_r.femur_med_r.force.X	femur_med_tibia_r.femur_med_r.force.Y	femur_med_tibia_r.femur_med_r.force.Z	femur_med_tibia_r.femur_med_r.torque.X	femur_med_tibia_r.femur_med_r.torque.Y	femur_med_tibia_r.femur_med_r.torque.Z	femur_lat_tibia_r.tibia_upper_r.force.X	femur_lat_tibia_r.tibia_upper_r.force.Y	femur_lat_tibia_r.tibia_upper_r.force.Z	femur_lat_tibia_r.tibia_upper_r.torque.X	femur_lat_tibia_r.tibia_upper_r.torque.Y	femur_lat_tibia_r.tibia_upper_r.torque.Z	femur_lat_tibia_r.femur_lat_r.force.X	femur_lat_tibia_r.femur_lat_r.force.Y	femur_lat_tibia_r.femur_lat_r.force.Z	femur_lat_tibia_r.femur_lat_r.torque.X	femur_lat_tibia_r.femur_lat_r.torque.Y	femur_lat_tibia_r.femur_lat_r.torque.Z	aACL_R	pACL_R	aPCL_R	pPCL_R	aMCL_R	mMCL_R	pMCL_R	aLCL_R	mLCL_R	pLCL_R	aPCL_L	pPCL_L	aMCL_L	aLCL_L
      0.16588428	     11.36611661	      8.29845661	      8.92478489	      3.83240334	      4.45608329	      4.81853195	      0.00000000	    166.65246500	    138.64196679	    295.96442548	    130.43035942	      8.25853175	      5.94849917	      3.72290142	      3.61827974	      6.09631615	      4.91232922	      3.23473482	     99.88037549	      5.35807075	      8.15088879	      6.12472595	     27.46021719	     18.43003035	      5.26933892	      3.64165244	      6.22734671	     55.06051124	     31.06426291	     33.22290262	     44.85993194	      0.00000000	      0.00000000	      0.00000000	      0.00000000	      0.00000000	      0.00000000	     34.19433787	      2.29506006	      2.92193971	     61.54812153	     43.25031887	     11.03002006	     11.36611661	      8.29845661	      8.92478489	      3.83240334	      4.45608329	      4.81853195	      0.00000000	      6.14732827	     12.13732323	     10.48787126	      2.18673618	      8.25853175	      5.94849917	      3.72290142	      3.61827974	      6.09631615	      5.40159241	      3.23473482	      2.25719700	      5.35807075	      8.15088879	      6.12472595	     27.46021719	     18.43003035	      5.26933892	      3.64165244	      6.22734671	     16.89865995	      0.00000000	      0.00000000	      0.00000000	     21.13641578	      9.98120105	     50.52069663	     50.83219789	      5.41771560	      4.84712007	     13.15436180	      7.03412475	     18.09533206	      2.84960322	      8.77151991	      2.75657689	     36.07277962	     36.07277962	     13.39745102	     13.39745102	     30.76856499	     30.76856499	    109.52363392	    178.60470290	     19.24199542	    -12.00750128	      2.64287852	     42.98433214	   -109.52363392	   -178.60470290	    -19.24199542	      4.84716339	     -3.21257543	      3.05958135	     25.01569963	     21.33105576	     11.47181276	     -4.14072507	     -0.56209222	     10.03070264	    -25.01569963	    -21.33105576	    -11.47181276	     -0.25960844	      0.28462426	      0.08069896	   -772.34035505	   -689.23190938	    223.98850530	    -15.86127315	     17.39813823	     -1.13615571	    772.34035505	    689.23190938	   -223.98850530	    103.48510354	    -13.92667774	    313.95605476	      0.00000000	      0.00000000	      0.00000000	      0.00000000	      0.00000000	      0.00000000	      0.00000000	      0.00000000	      0.00000000	      0.00000000	      0.00000000	      0.00000000	     -3.35930416	      0.00000000	    592.61912635	    382.77564504	      0.00000000	      0.00000000	      0.00000000	      0.00000000	      0.00000000	      0.00000000	      0.00000000	      0.00000000	      0.00000001	      0.00000000
      0.16608570	     11.35649622	      8.29147151	      8.91718253	      3.82930974	      4.45269868	      4.81420848	      0.00000000	    166.63617714	    138.68554401	    295.94104899	    130.39669025	      8.25150024	      5.94374210	      3.75330867	      3.61517861	      6.09069672	      4.90466249	      3.23210503	     99.84512981	      5.35354297	      8.14398537	      6.11945790	     27.44734780	     18.41535450	      5.26499276	      3.63953006	      6.22509924	     55.23979140	     31.07221360	     33.22256426	     44.85026839	      0.00000000	      0.00000000	      0.00000000	      0.00000000	      0.00000000	      0.00000000	     34.22626709	      2.28641835	      2.91947597	     24.86076991	     43.40258893	     11.06873141	     11.35649622	      8.29147151	      8.91718253	      3.82930974	      4.45269868	      4.81420848	      0.00000000	      6.14182504	     12.12659815	     10.47921095	      2.18497924	      8.25150024	      5.94374210	      3.75330867	      3.61517861	      6.09069672	      5.39812913	      3.23210503	      2.25535156	      5.35354297	      8.14398537	      6.11945790	     27.44734780	     18.41535450	      5.26499276	      3.63953006	      6.22509924	     16.88241695	      0.00000000	      0.00000000	      0.00000000	     21.13120615	      9.97804636	     50.48116466	     50.81151754	      5.41309225	      4.84287402	     13.14239755	      7.02735263	     18.08261283	      2.84734233	      8.76318519	      2.75412407	     36.04359547	     36.04359547	     13.38573886	     13.38573886	     30.75794867	     30.75794867	    109.83064339	    179.21038078	     19.59315536	    -12.16609153	      2.65276700	     43.09774193	   -109.83064339	   -179.21038078	    -19.59315536	      4.87088162	     -3.23127247	      3.08735524	     25.79790226	     21.72591930	     11.38172257	     -4.09226554	     -0.58365578	     10.34963711	    -25.79790226	    -21.72591930	    -11.38172257	     -0.27292810	      0.30636589	      0.07384808	   -774.00749363	   -689.80402486	    224.39183192	    -15.86185929	     17.44102721	     -1.07832507	    774.00749363	    689.80402486	   -224.39183192	    103.65111593	    -13.95759018	    314.60324608	      0.00000000	      0.00000000	      0.00000000	      0.00000000	      0.00000000	      0.00000000	      0.00000000	      0.00000000	      0.00000000	      0.00000000	      0.00000000	      0.00000000	     -3.45984398	      0.00000000	    594.72513710	    383.98283529	      0.00000000	      0.00000000	      0.00000000	      0.00000000	      0.00000000	      0.00000000	      0.00000000	      0.00000000	      0.00000001	      0.00000000
      0.16628713	     11.34689211	      8.28450528	      8.90960076	      3.82622442	      4.44932321	      4.80989655	      0.00000000	    166.61732281	    138.72619757	    295.91111223	    130.36347314	      8.24448777	      5.93899773	      3.78131566	      3.61208588	      6.08509247	      4.89694225	      3.22948230	     99.80977950	      5.34902748	      8.13710070	      6.11420418	     27.43451367	     18.40071896	      5.26065830	      3.63741355	      6.22283646	     55.41609233	     31.06630666	     33.21521353	     44.83703192	      0.00000000	      0.00000000	      0.00000000	      0.00000000	      0.00000000	      0.00000000	     34.25771187	      2.27799333	      2.91715213	     24.27003189	     43.53684051	     11.10064014	     11.34689211	      8.28450528	      8.90960076	      3.82622442	      4.44932321	      4.80989655	      0.00000000	      6.13633674	     12.11589084	     10.47057396	      2.18322700	      8.24448777	      5.93899773	      3.78131566	      3.61208588	      6.08509247	      5.39467507	      3.22948230	      2.25351108	      5.34902748	      8.13710070	      6.11420418	     27.43451367	     18.40071896	      5.26065830	      3.63741355	      6.22283646	     16.86621549	      0.00000000	      0.00000000	      0.00000000	     21.12594869	      9.97487102	     50.44164942	     50.79087894	      5.40845566	      4.83860952	     13.13045915	      7.02059589	     18.06991308	      2.84508764	      8.75491921	      2.75169667	     36.01448945	     36.01448945	     13.37405850	     13.37405850	     30.74736155	     30.74736155	    110.65888281	    178.96349593	     20.18096515	    -12.40434936	      2.68082713	     43.43887705	   -110.65888281	   -178.96349593	    -20.18096515	      4.88146056	     -3.27391869	      3.07109923	     25.48371814	     21.40838169	     11.27681773	     -4.05886625	     -0.57296449	     10.21978434	    -25.48371814	    -21.40838169	    -11.27681773	     -0.26655780	      0.29786407	      0.07721120	   -775.68165569	   -690.28294430	    224.64155263	    -15.85559407	     17.47925474	     -1.02349134	    775.68165569	    690.28294430	   -224.64155263	    103.75079215	    -13.98705813	    315.25429909	      0.00000000	      0.00000000	      0.00000000	      0.00000000	      0.00000000	      0.00000000	      0.00000000	      0.00000000	      0.00000000	      0.00000000	      0.00000000	      0.00000000	     -3.51759561	      0.00000000	    596.81746523	    385.15021608	      0.00000000	      0.00000000	      0.00000000	      0.00000000	      0.00000000	      0.00000000	      0.00000000	      0.00000000	      0.00000001	      0.00000000
      0.16687104	     11.31914342	      8.26441670	      8.88773744	      3.81732679	      4.43958927	      4.79746149	      0.00000000	    166.56146109	    138.85139541	    295.90067234	    130.27605661	      8.22426614	      5.92531543	      3.85057623	      3.60316742	      6.06893133	      4.87419835	      3.22191880	     99.71365111	      5.33600645	      8.11724781	      6.09905447	     27.39750659	     18.35851807	      5.24815869	      3.63131090	      6.21619142	     55.92389077	     31.02190866	     33.18115759	     44.79628360	      0.00000000	      0.00000000	      0.00000000	      0.00000000	      0.00000000	      0.00000000	     34.34787921	      2.25365447	      2.91026040	     65.25690799	     43.89085093	     11.17991270	     11.31914342	      8.26441670	      8.88773744	      3.81732679	      4.43958927	      4.79746149	      0.00000000	      6.12051053	     12.08495197	     10.44566697	      2.17817374	      8.22426614	      5.92531543	      3.85057623	      3.60316742	      6.06893133	      5.38471375	      3.22191880	      2.24820349	      5.33600645	      8.11724781	      6.09905447	     27.39750659	     18.35851807	      5.24815869	      3.63131090	      6.21619142	     16.81948218	      0.00000000	      0.00000000	      0.00000000	     21.11043969	      9.96555041	     50.32719741	     50.73128487	      5.39493870	      4.82614189	     13.09599651	      7.00109520	     18.03320791	      2.83858625	      8.73134208	      2.74480202	     35.93055211	     35.93055211	     13.34037655	     13.34037655	     30.71683427	     30.71683427	    111.54816872	    179.57731675	     20.85163451	    -12.69645731	      2.70231675	     43.77943760	   -111.54816872	   -179.57731675	    -20.85163451	      4.91486668	     -3.31388841	      3.11600277	     25.48101604	     20.90964124	     11.05893585	     -3.98244500	     -0.57106272	     10.21767573	    -25.48101604	    -20.90964124	    -11.05893585	     -0.26034983	      0.29914421	      0.07232353	   -781.87891158	   -689.26419747	    226.09720955	    -15.82777196	     17.62939348	     -0.97109235	    781.87891158	    689.26419747	   -226.09720955	    104.30934427	    -14.09846872	    317.71810404	      0.00000000	      0.00000000	      0.00000000	      0.00000000	      0.00000000	      0.00000000	      0.00000000	      0.00000000	      0.00000000	      0.00000000	      0.00000000	      0.00000000	     -3.55884556	      0.00000000	    602.73825929	    388.17711066	      0.00000000	      0.00000000	      0.00000000	      0.00000000	      0.00000000	      0.00000000	      0.00000000	      0.00000000	      0.00000001	      0.00000000
